PathFileType	4	(X/Y/Z)	F:\shared\Remotetake0125-Body25.trc
DataRate	CameraRate	NumFrames	NumMarkers	Units	OrigDataRate	OrigDataStartFrame	OrigNumFrames	useTimeStamp
60		60		4		79		mm		60		1125		1799		1																					
Frame#	Time	Timestamp	HeadTop			LHeadFront			LHeadBack			RHeadFront			RHeadBack			C7			T10			CLAV			STRN			LShoulderFront			LShoulderBack			LUArmHigh			LElbow			LElbowIn			LForearm			LWristIn			LWristOut			LHandIn			LHandOut			RShoulderFront			RShoulderBack			RUArmHigh			RElbow			RElbowIn			RForearm			RWristIn			RWristOut			RHandIn			RHandOut			WaistLFront			WaistLSide			WaistLBack			WaistRFront			WaistRSide			WaistRBack			LThigh			LKnee			LKneeIn			LShin			LAnkleOut			LHeel			LMT5			LMT1			LToe			RThigh			RKnee			RKneeIn			RShin			RAnkleOut			RHeel			RMT5			RMT1			RToe			C7			C7			STRN			STRN			LUArmHigh			LForearm			RUArmHigh			RForearm			WaistLFront			WaistLFront			WaistLSide			WaistLSide			WaistLBack			WaistLBack			WaistRFront			WaistRFront			WaistRSide			WaistRSide			WaistRBack			WaistRBack			LThigh			LShin			RThigh			RShin			LShoulderFront			RShoulderFront			
			X1	Y1	Z1	X2	Y2	Z2	X3	Y3	Z3	X4	Y4	Z4	X5	Y5	Z5	X6	Y6	Z6	X7	Y7	Z7	X8	Y8	Z8	X9	Y9	Z9	X10	Y10	Z10	X11	Y11	Z11	X12	Y12	Z12	X13	Y13	Z13	X14	Y14	Z14	X15	Y15	Z15	X16	Y16	Z16	X17	Y17	Z17	X18	Y18	Z18	X19	Y19	Z19	X20	Y20	Z20	X21	Y21	Z21	X22	Y22	Z22	X23	Y23	Z23	X24	Y24	Z24	X25	Y25	Z25	X26	Y26	Z26	X27	Y27	Z27	X28	Y28	Z28	X29	Y29	Z29	X30	Y30	Z30	X31	Y31	Z31	X32	Y32	Z32	X33	Y33	Z33	X34	Y34	Z34	X35	Y35	Z35	X36	Y36	Z36	X37	Y37	Z37	X38	Y38	Z38	X39	Y39	Z39	X40	Y40	Z40	X41	Y41	Z41	X42	Y42	Z42	X43	Y43	Z43	X44	Y44	Z44	X45	Y45	Z45	X46	Y46	Z46	X47	Y47	Z47	X48	Y48	Z48	X49	Y49	Z49	X50	Y50	Z50	X51	Y51	Z51	X52	Y52	Z52	X53	Y53	Z53	X54	Y54	Z54	X55	Y55	Z55	X56	Y56	Z56	X57	Y57	Z57	X58	Y58	Z58	X59	Y59	Z59	X60	Y60	Z60	X61	Y61	Z61	X62	Y62	Z62	X63	Y63	Z63	X64	Y64	Z64	X65	Y65	Z65	X66	Y66	Z66	X67	Y67	Z67	X68	Y68	Z68	X69	Y69	Z69	X70	Y70	Z70	X71	Y71	Z71	X72	Y72	Z72	X73	Y73	Z73	X74	Y74	Z74	X75	Y75	Z75	X76	Y76	Z76	X77	Y77	Z77	X78	Y78	Z78	X79	Y79	Z79	

1125	18.733	1702448230339	95.259033	499.281433	1510.504028	51.772800	385.704132	1459.374390	135.229919	327.566528	1539.937988	182.508804	493.971954	1507.263550	173.117462	359.104980	1554.036621	323.480957	225.194199	1421.724121	388.417145	116.207047	1139.337891	256.606964	364.064148	1222.359009	269.273529	383.763611	1024.655518	138.577972	285.156067	1275.518677	132.859711	152.260010	1348.542480	58.476418	173.122284	1202.577271	54.375904	181.725815	1076.527222	121.879677	98.724686	1030.652588																369.613678	394.498077	1309.807861	457.584412	294.851379	1367.114868	503.023254	420.973724	1210.865234																						162.991058	266.125671	920.594055	157.072449	142.771744	930.511536	269.674927	61.842590	946.101501	407.889343	340.777130	912.693359				440.991241	128.330231	943.229370	110.081993	165.331924	626.142517																									435.295654	345.510376	662.294983	462.435669	240.445999	450.827454				423.995911	272.953369	206.748978	398.378479	245.634689	61.331814	342.612091	191.745911	81.819824	436.702271	356.190796	26.967304	316.019775	373.769135	13.889001	383.785431	394.179382	52.284847																																																																															
1126	18.750	1702448230357	91.163651	496.341553	1510.609131	48.407326	382.737244	1458.739380	131.899399	324.651062	1539.469116	178.390717	491.590393	1507.814941	169.577530	356.319366	1553.956543	320.773224	223.636063	1421.903809	387.235840	115.474525	1139.938477	253.918106	362.763733	1222.609131	266.196686	381.806610	1024.949219	135.682602	282.780273	1275.520508	130.642593	150.354660	1348.439209	56.078651	171.646881	1202.889893	51.896809	180.484451	1076.537598	118.957329	97.285965	1030.555664																366.699432	392.677612	1310.287354	455.028595	293.355438	1368.026001	500.843048	418.709198	1212.553223																						161.340469	265.064056	920.918701	155.768402	141.402557	930.391174	268.442505	60.687988	946.358459	405.818268	339.947388	913.129944				439.846252	127.366890	943.735474	108.941132	164.782349	626.100220																									434.051941	344.675232	662.697144	460.168335	240.971008	451.253021				423.645813	272.729248	207.029343	398.304230	245.565903	61.542171	342.573792	191.794525	81.857208	436.658722	356.245239	27.104496	316.047302	373.630585	13.735303	383.704987	394.263885	52.400150																																																																															
1127	18.766	1702448230372	86.994591	493.324219	1510.596802	45.127796	379.722900	1458.128906	128.525085	321.699188	1539.080078	174.240097	489.035400	1508.274170	166.032959	353.644226	1553.684692	318.215118	221.938202	1422.203613	386.458862	114.566689	1139.955688	251.698257	361.261993	1223.133545	263.290375	379.756378	1025.201904	132.940582	280.620148	1275.289917	128.529663	148.546112	1348.246948	53.771873	170.065689	1202.869751	49.467003	179.084503	1076.477661	116.285278	95.724518	1030.427002																364.520782	391.112335	1310.781494	452.438599	291.960022	1368.915649	498.761566	417.313080	1214.502075																						159.491104	263.674377	920.996704	154.270935	139.807098	930.763123	267.287598	59.293423	946.624451	404.002808	338.873932	913.642700				438.513062	126.478127	944.184143	107.998764	164.002594	626.003906																									433.300964	343.795380	663.557129	457.958710	241.394623	451.804230				423.338654	272.631134	207.154800	398.268402	245.458054	61.656902	342.458496	191.620514	82.013885	436.532104	356.344238	27.157917	316.002045	373.693665	13.752600	383.739899	394.230621	52.311562																																																																															
1128	18.783	1702448230389	82.961563	490.350006	1510.383179	42.106564	376.665894	1457.263306	125.330986	318.969543	1538.503662	170.173935	486.561005	1508.438232	162.562195	350.949310	1553.377930	315.658051	220.174271	1422.353638	386.043945	113.693077	1140.404663	249.865005	359.917206	1223.682373	260.841339	376.973236	1024.873413	130.561295	278.414673	1275.189941	126.348297	146.749130	1347.880249	51.406319	167.928024	1202.679810	47.179169	177.759277	1076.303467	114.081741	94.344841	1030.248901																362.808136	389.756531	1311.414062	450.052826	290.137482	1369.759766	496.757141	416.376099	1215.831421																						157.950378	261.365570	920.953491	152.919769	138.682755	930.736450	265.776123	58.313030	946.552979	402.216309	337.784760	914.040649				436.874878	125.584183	944.222229	107.206001	162.990341	625.901123																									431.627686	342.917816	663.410583	455.869019	241.331009	452.015442				423.056641	272.279633	207.530182	398.191437	245.502930	61.638779	342.432831	191.643448	81.945488	436.534546	356.229523	27.011560	315.999664	373.686340	13.843757	383.715851	394.241089	52.287495																																																																															
